<?xml version="1.0" encoding="utf-8"?>
<svg width="230.003" height="34" viewBox="0 0 230.003 34" fill="none" xmlns="http://www.w3.org/2000/svg">
  <g>
    <g>
      <path d="M0 0L0 31.5173L17.4705 31.5173L17.4705 29.4496L2.2327 29.4496L2.2327 0L0 0L0 0Z" fill="#2B2E34" fill-rule="evenodd" transform="translate(0 2.028)" />
      <path d="M0 2.07172C0 0.693118 0.458879 0.000783086 1.37972 0.000783086C1.80472 -0.0143995 2.20509 0.192087 2.43915 0.54129C2.72248 0.999811 2.85491 1.53425 2.82103 2.07172C2.85183 2.60919 2.71632 3.14059 2.43607 3.60214C2.20817 3.96046 1.80472 4.17605 1.37664 4.16391C0.458879 4.16391 0 3.4655 0 2.07172C0 2.07172 0 2.07172 0 2.07172ZM2.47007 32.0183L0.3081 32.0183L0.3081 8.5821L2.47007 8.5821L2.47007 32.0183L2.47007 32.0183Z" fill="#2B2E34" transform="translate(21.231 1.53)" />
      <path d="M9.70683 27.6429C10.911 27.6581 12.1151 27.5397 13.2945 27.2907C13.2945 27.2907 13.2945 29.0093 13.2945 29.0093C12.1212 29.3736 10.8955 29.5497 9.66373 29.5315C7.94222 29.6742 6.24539 29.067 5.01665 27.8706C3.8926 26.3676 3.3629 24.5155 3.51995 22.6542C3.51995 22.6542 3.51995 7.52104 3.51995 7.52104L0 7.52104L0 6.27006L3.51995 5.29843L4.61321 0L5.72801 0L5.72801 5.66886L12.7002 5.66886L12.7002 7.52407L5.72801 7.52407C5.72801 7.52407 5.72801 22.3536 5.72801 22.3536C5.62332 23.7503 5.959 25.144 6.68883 26.3434C7.41255 27.2482 8.54276 27.734 9.70683 27.6429C9.70683 27.6429 9.70683 27.6429 9.70683 27.6429Z" fill="#2B2E34" fill-rule="evenodd" transform="translate(27.335 4.442)" />
      <path d="M9.70684 27.6429C10.9109 27.6581 12.1151 27.5397 13.2945 27.2907C13.2945 27.2907 13.2945 29.0093 13.2945 29.0093C12.1212 29.3736 10.8956 29.5497 9.66372 29.5315C7.94225 29.6742 6.24538 29.067 5.01664 27.8706C3.8926 26.3676 3.3629 24.5155 3.51997 22.6542C3.51997 22.6542 3.51997 7.52104 3.51997 7.52104L0 7.52104L0 6.27006L3.51997 5.29843L4.6132 0L5.72801 0L5.72801 5.66886L12.7002 5.66886L12.7002 7.52407L5.72801 7.52407C5.72801 7.52407 5.72801 22.3536 5.72801 22.3536C5.62331 23.7503 5.95899 25.144 6.69191 26.3434C7.41562 27.2482 8.54586 27.734 9.70992 27.6429C9.70992 27.6429 9.70684 27.6429 9.70684 27.6429Z" fill="#2B2E34" fill-rule="evenodd" transform="translate(42.335 4.442)" />
      <path d="M0 33.5456L2.16494 33.5456L2.16494 0L0 0L0 33.5456L0 33.5456Z" fill="#2B2E34" fill-rule="evenodd" transform="translate(59.87 0)" />
      <path d="M11.0006 24.3279C7.97012 24.4979 5.01667 23.3471 2.92246 21.179C0.859047 18.7072 -0.175735 15.5552 0.0244446 12.3608C-0.141861 9.13595 0.849808 5.95667 2.82082 3.38167C4.65326 1.14676 7.44964 -0.1043 10.363 0.00805092C12.9069 -0.104303 15.3583 0.964568 16.9875 2.89582C18.7152 5.14591 19.5745 7.9274 19.4174 10.7423C19.4174 10.7423 19.4174 12.461 19.4174 12.461C19.4174 12.461 2.29728 12.461 2.29728 12.461C2.14021 15.1119 2.95017 17.7294 4.58244 19.8398C6.22392 21.598 8.57991 22.5333 10.9975 22.3845C12.1955 22.3966 13.3935 22.3025 14.573 22.1051C15.9096 21.8258 17.2154 21.4219 18.475 20.8996C18.475 20.8996 18.475 22.84 18.475 22.84C17.2832 23.3683 16.039 23.7631 14.7578 24.0151C13.5167 24.2307 12.2571 24.337 10.9975 24.3279C10.9975 24.3279 11.0006 24.3279 11.0006 24.3279ZM10.36 1.9059C8.28115 1.82088 6.26701 2.63468 4.84727 4.13777C3.33513 5.95364 2.48205 8.21891 2.42353 10.5662C2.42353 10.5662 17.1169 10.5662 17.1169 10.5662C17.2524 8.30393 16.621 6.06295 15.3245 4.19546C14.1511 2.67718 12.294 1.82087 10.36 1.9059C10.36 1.9059 10.36 1.9059 10.36 1.9059Z" fill="#2B2E34" transform="translate(66.799 9.651)" />
    </g>
    <path d="M31.7898 31.9807L23.5488 31.9807C23.5488 31.9807 21.0359 29.5456 21.0359 29.5456C18.2704 31.4493 14.9691 32.4513 11.5939 32.4088C8.57898 32.5698 5.59486 31.7165 3.1312 29.9949C1.07712 28.4464 -0.0900345 26.0112 0.00543213 23.4637C-0.0499954 21.6966 0.411942 19.9507 1.32965 18.4325C2.49989 16.7929 4.05508 15.4569 5.86588 14.5399C4.89272 13.4863 4.08896 12.29 3.48228 10.9965C2.98031 9.8275 2.72471 8.57045 2.7401 7.30126C2.68159 5.23958 3.62702 3.27506 5.28691 2.01801C7.25477 0.596999 9.65991 -0.110471 12.0989 0.0140209C14.4179 -0.104397 16.7091 0.551455 18.603 1.8753C20.1921 3.04733 21.1036 4.91165 21.039 6.86706C21.0482 8.54616 20.5185 10.1888 19.53 11.5552C18.215 13.2343 16.552 14.6128 14.6488 15.5996C14.6488 15.5996 20.8573 21.5691 20.8573 21.5691C22.0429 19.5347 22.9452 17.3516 23.5488 15.0804C23.5488 15.0804 30.4994 15.0804 30.4994 15.0804C29.9697 17.0388 29.243 18.9426 28.3345 20.7614C27.4814 22.5073 26.4313 24.15 25.2087 25.6651C25.2087 25.6651 31.7898 31.9807 31.7898 31.9807L31.7898 31.9807ZM7.01755 22.8413C6.97751 23.9921 7.50105 25.0912 8.42799 25.7957C9.46889 26.5608 10.7469 26.9495 12.0465 26.8948C13.7926 26.9191 15.511 26.4637 17.0108 25.5801C17.0108 25.5801 9.74913 18.4659 9.74913 18.4659C8.98232 19.0185 8.30481 19.6896 7.74741 20.4486C7.25775 21.15 7.00214 21.9881 7.02063 22.8413C7.02063 22.8413 7.01755 22.8413 7.01755 22.8413ZM14.8644 7.55632C14.8983 6.87011 14.6057 6.20515 14.076 5.75577C13.5002 5.30031 12.7795 5.06651 12.0435 5.09688C11.2151 5.05133 10.399 5.29424 9.73692 5.78613C9.16412 6.27498 8.85309 7.00067 8.89619 7.74761C9.05017 9.34473 9.78619 10.8325 10.9718 11.9317C12.025 11.3882 12.9982 10.702 13.8605 9.89431C14.5072 9.284 14.8706 8.43686 14.8675 7.55632C14.8675 7.55632 14.8644 7.55632 14.8644 7.55632Z" fill="#DA3427" transform="translate(88.8 1.565)" />
    <g transform="translate(122.296 8.968)">
      <path d="M21.8897 24.5777L15.2225 24.5777C15.2225 24.5777 15.2225 10.5012 15.2225 10.5012C15.3148 9.14089 15.0069 7.78058 14.3355 6.58731C13.7042 5.69766 12.6448 5.1997 11.5485 5.28168C10.0579 5.17236 8.62592 5.88591 7.83136 7.13688C6.91367 9.03765 6.51335 11.1388 6.67036 13.2369C6.67036 13.2369 6.67036 24.5746 6.67036 24.5746L0 24.5746L0 0.475138L5.09981 0.475138L5.99599 3.55702C5.99599 3.55702 6.36862 3.55702 6.36862 3.55702C7.03993 2.43661 8.02852 1.53481 9.21106 0.957915C10.5352 0.314204 11.998 -0.00764847 13.4732 0.0227175C17.1318 0.0227175 19.6108 1.20082 20.9073 3.55702C20.9073 3.55702 21.4986 3.55702 21.4986 3.55702C22.1731 2.4184 23.1831 1.50749 24.3965 0.948801C25.7423 0.314204 27.2205 -0.00157261 28.7141 0.0227175C31.0115 -0.144282 33.2781 0.614799 34.9995 2.12387C36.4223 3.52666 37.1305 5.77053 37.1305 8.85547C37.1305 8.85547 37.1305 24.5777 37.1305 24.5777L30.4387 24.5777C30.4387 24.5777 30.4387 10.5012 30.4387 10.5012C30.5311 9.14087 30.2231 7.78058 29.5517 6.58729C28.9204 5.69765 27.861 5.1997 26.7646 5.28167C25.3235 5.19058 23.9376 5.84036 23.1031 7.00025C22.1638 8.67023 21.7419 10.574 21.8897 12.4778C21.8897 12.4778 21.8897 24.5746 21.8897 24.5746L21.8897 24.5777Z" fill="#2B2E34" fill-rule="evenodd" />
      <path d="M23.7294 12.4765C23.9296 15.8319 22.8024 19.1327 20.582 21.6834C18.2783 23.979 15.0847 25.1906 11.8109 25.0054C9.63972 25.0479 7.49931 24.5256 5.60221 23.4841C3.8098 22.4729 2.3685 20.9516 1.46614 19.1205C0.465229 17.0496 -0.0275192 14.7722 0.0248299 12.4796C-0.184589 9.13328 0.936436 5.83861 3.15076 3.29701C5.47286 1.01655 8.6727 -0.173779 11.9434 0.0205608C14.1115 -0.0219508 16.255 0.497301 18.1521 1.52973C19.9414 2.5318 21.3796 4.04097 22.2851 5.85987C23.2891 7.92473 23.7818 10.193 23.7295 12.4796C23.7295 12.4796 23.7294 12.4765 23.7294 12.4765ZM6.82805 12.4796C6.70794 14.3562 7.12062 16.2328 8.0199 17.8907C8.88222 19.1479 10.3666 19.8493 11.9003 19.7248C13.4186 19.8493 14.8877 19.1509 15.7346 17.9029C16.6216 16.2358 17.0281 14.3592 16.9049 12.4796C17.0281 10.6151 16.6185 8.75675 15.7254 7.11093C14.8507 5.87505 13.3755 5.19183 11.8541 5.3224C10.3389 5.19486 8.87297 5.87201 8.0014 7.10182C7.10213 8.75068 6.6956 10.6151 6.82495 12.4796C6.82495 12.4796 6.82805 12.4796 6.82805 12.4796Z" fill="#2B2E34" transform="translate(40.666 0.008)" />
      <path d="M13.6426 0.00211525C14.3971 -0.0130739 15.1516 0.0537214 15.8937 0.196445C15.8937 0.196445 15.3918 6.35415 15.3918 6.35415C14.7481 6.1993 14.086 6.12947 13.4239 6.14465C11.6162 6.03534 9.8362 6.61529 8.45036 7.76303C7.21857 8.94417 6.56876 10.599 6.66733 12.2902C6.66733 12.2902 6.66733 24.554 6.66733 24.554L0 24.554L0 0.454531L5.05362 0.454531L6.03595 4.50502C6.03595 4.50502 6.36549 4.50502 6.36549 4.50502C7.09845 3.18117 8.15166 2.05774 9.43582 1.24095C10.683 0.4272 12.1489 -0.00395298 13.6456 0.00211525C13.6456 0.00211525 13.6426 0.00211525 13.6426 0.00211525Z" fill="#2B2E34" fill-rule="evenodd" transform="translate(68.114 0.021)" />
      <path d="M12.581 25.0069C9.19328 25.2043 5.8641 24.0443 3.35106 21.7942C1.01662 19.3437 -0.187538 16.0521 0.0280457 12.6967C-0.193687 9.30178 0.905762 5.95245 3.1016 3.32886C5.30975 1.05448 8.41412 -0.154073 11.6016 0.0190109C14.5828 -0.15711 17.5054 0.896577 19.6674 2.92804C21.6846 5.1174 22.7256 8.01428 22.55 10.9689C22.55 10.9689 22.55 14.1603 22.55 14.1603C22.55 14.1603 6.78185 14.1603 6.78185 14.1603C6.75721 15.7757 7.35776 17.3426 8.46645 18.536C9.65522 19.6382 11.2536 20.2091 12.8828 20.1119C14.2871 20.1211 15.6915 19.9692 17.062 19.6595C18.4786 19.3194 19.8584 18.8366 21.1734 18.2141C21.1734 18.2141 21.1734 23.3003 21.1734 23.3003C19.9877 23.8834 18.7312 24.3176 17.4346 24.5909C15.8362 24.8945 14.2071 25.0372 12.581 25.0099C12.581 25.0099 12.581 25.0069 12.581 25.0069ZM11.6387 4.69835C10.3852 4.63155 9.16872 5.1174 8.31564 6.02533C7.44408 7.09117 6.96056 8.41511 6.93902 9.7846C6.93902 9.7846 16.2952 9.7846 16.2952 9.7846C16.3568 8.41511 15.8979 7.07295 15.0048 6.0223C14.1302 5.12044 12.9014 4.63459 11.6387 4.69532C11.6387 4.69532 11.6387 4.69835 11.6387 4.69835Z" fill="#2B2E34" transform="translate(85.138 0.004)" />
    </g>
  </g>
</svg>